HIERARCHY
ROOT Hips
{
  OFFSET -59.652 91.3921 -6.26488
  CHANNELS 6 Xposition Yposition Zposition Zrotation Xrotation Yrotation
  JOINT ToSpine
  {
    OFFSET -2.69724 7.43032 -0.144315
    CHANNELS 3 Zrotation Xrotation Yrotation
    JOINT Spine
    {
      OFFSET -0.0310711 10.7595 1.96963
      CHANNELS 3 Zrotation Xrotation Yrotation
      JOINT Spine1
      {
        OFFSET 13.1342 3.43533 0.764692
        CHANNELS 3 Zrotation Xrotation Yrotation
        JOINT Neck
        {
          OFFSET 29.8703 7.82586 -0.130764
          CHANNELS 3 Zrotation Xrotation Yrotation
          JOINT Head
          {
            OFFSET 9.52751 0.295786 -0.907742
            CHANNELS 3 Zrotation Xrotation Yrotation
            End Site
            {
              OFFSET 16.4037 0.713936 2.7358
            }
          }
        }
        JOINT LeftShoulder
        {
          OFFSET 27.5574 4.95586 2.47156
          CHANNELS 3 Zrotation Xrotation Yrotation
          JOINT LeftArm
          {
            OFFSET 1.20734 -0.998971 20.1238
            CHANNELS 3 Zrotation Xrotation Yrotation
            JOINT LeftForeArm
            {
              OFFSET 26.8049 -0.0536703 -0.155908
              CHANNELS 3 Zrotation Xrotation Yrotation
              JOINT LeftHand
              {
                OFFSET 26.6817 0 0.320147
                CHANNELS 3 Zrotation Xrotation Yrotation
                End Site
                {
                  OFFSET 18.6119 0 0.382219
                }
              }
            }
          }
        }
        JOINT RightShoulder
        {
          OFFSET 27.5927 4.71444 -2.65209
          CHANNELS 3 Zrotation Xrotation Yrotation
          JOINT RightArm
          {
            OFFSET 2.83739 -1.17114 -18.7564
            CHANNELS 3 Zrotation Xrotation Yrotation
            JOINT RightForeArm
            {
              OFFSET 28.839 -0.0548439 1.22491
              CHANNELS 3 Zrotation Xrotation Yrotation
              JOINT RightHand
              {
                OFFSET 26.5114 0 -0.101894
                CHANNELS 3 Zrotation Xrotation Yrotation
                End Site
                {
                  OFFSET 18.2168 0 0
                }
              }
            }
          }
        }
      }
    }
  }
  JOINT LeftUpLeg
  {
    OFFSET -4.76168 -1.9167 -10.2353
    CHANNELS 3 Zrotation Xrotation Yrotation
    JOINT LeftLeg
    {
      OFFSET 2.55951 -42.0585 -8.02213
      CHANNELS 3 Zrotation Xrotation Yrotation
      JOINT LeftFoot
      {
        OFFSET 3.16357 -42.5282 -3.95426
        CHANNELS 3 Zrotation Xrotation Yrotation
        JOINT LeftToeBase
        {
          OFFSET 0.346054 -6.02161 12.8035
          CHANNELS 3 Zrotation Xrotation Yrotation
          End Site
          {
            OFFSET 0.134235 -1.35082 5.13018
          }
        }
      }
    }
  }
  JOINT RightUpLeg
  {
    OFFSET -4.94151 -1.41743 10.6446
    CHANNELS 3 Zrotation Xrotation Yrotation
    JOINT RightLeg
    {
      OFFSET -2.56294 -42.0364 -7.94377
      CHANNELS 3 Zrotation Xrotation Yrotation
      JOINT RightFoot
      {
        OFFSET -3.0952 -42.555 -4.02241
        CHANNELS 3 Zrotation Xrotation Yrotation
        JOINT RightToeBase
        {
          OFFSET -0.0828122 -6.13587 12.8035
          CHANNELS 3 Zrotation Xrotation Yrotation
          End Site
          {
            OFFSET -0.131328 -1.35082 5.13018
          }
        }
      }
    }
  }
}
MOTION
Frames:	13
Frame Time:	0.0333333
-72.4667 92.4493 -5.90009 72.8912 -2.90968 0.127706 -70.1915 0 88.8779 68.1925 67.6118 11.4045 4.40341 16.3269 6.4304 -127.143 31.1853 156.48 -161.776 74.8654 -168.906 0.675776 -15.7301 -15.8123 -83.9147 34.2032 -121.63 9.77997 4.70315 -64.1265 0.420957 0.000575384 0.35866 -0.616258 4.67706 28.6433 -133.652 -14.926 100.036 13.1755 -4.45836 71.5611 0.58676 0.000330876 0.0646653 -56.6393 12.3841 105.84 -2.35441 43.3689 -1.79976 -2.58938 -24.3552 -2.31042 0.513788 -5.18602 12.5054 -38.0049 -9.92295 86.7427 -0.114163 29.2123 14.6667 2.6504 2.36774 -0.43137 0.758657 -6.18032 -0.378746 
-71.7911 92.5174 -5.53566 72.6334 -1.93139 0.2882 -70.1915 0 88.8779 68.2981 67.1352 9.95058 4.35724 15.3925 7.61007 -127.318 30.679 155.665 -157.464 74.3887 -172.875 0.667546 -15.743 -15.9635 -87.5497 32.452 -112.619 8.35369 4.89247 -59.5044 0.420957 0.000575384 0.35866 -0.383804 3.78176 26.4734 -135.563 -15.3893 99.3288 11.6946 -3.65024 72.8411 0.58676 0.000330876 0.0646653 -57.0002 12.0627 104.923 -2.29478 42.385 -2.02565 -3.05275 -24.3373 -2.35048 0.490514 -5.06921 12.2184 -36.757 -8.91252 91.1247 0.902635 32.7317 11.426 3.71978 1.51142 -0.500529 1.38307 -6.68546 -5.73962 
-70.6962 92.7151 -4.81294 72.0476 0.516661 1.15521 -70.1915 0 88.8779 69.3116 66.2074 8.11097 4.16263 14.1756 7.87806 -126.131 29.6416 153.593 -151.926 73.762 -177.252 0.715631 -15.3215 -15.5387 -90.8658 30.5501 -101.609 8.53335 6.24003 -53.7561 0.420957 0.000575384 0.35866 -0.0929761 2.25772 23.7417 -139.148 -15.449 97.5796 11.8458 -3.46975 73.8328 0.58676 0.000330876 0.0646653 -57.1012 11.8994 102.668 -2.2511 40.7583 -2.9904 -3.38854 -23.8653 -2.32532 0.883225 -5.86602 12.7431 -34.7628 -7.78698 95.322 2.36236 37.6441 5.36329 2.03682 3.67165 -0.471131 1.77824 -12.7349 -4.11944 
-69.3517 92.9581 -3.84006 71.4702 4.13638 2.17632 -70.1915 0 88.8779 70.6304 65.298 5.70888 4.0399 13.0375 7.6379 -123.64 28.5239 150.937 -147.621 73.5223 -179.799 0.732127 -15.1293 -15.4526 -91.7608 27.974 -91.4135 7.7869 6.6069 -49.6505 0.420957 0.000575384 0.35866 0.135249 0.589633 21.0851 -143.631 -15.452 95.6777 12.1169 -3.53987 73.8799 0.58676 0.000330876 0.0646653 -57.7373 11.8107 100.023 -2.38941 38.124 -5.69638 -4.52858 -23.3521 -2.35658 1.81976 -7.81129 14.8014 -32.4168 -7.55785 97.578 2.5848 44.4144 4.36397 3.87713 4.86748 -0.898977 2.00627 -15.2631 -5.03933 
-67.7429 93.1899 -2.61912 70.787 8.60081 3.87333 -70.1915 0 88.8779 73.3714 64.304 1.93591 3.57128 11.676 7.48541 -120.583 26.7623 149.061 -144 72.703 178.612 0.761183 -14.8204 -15.2246 -90.8427 25.761 -81.6222 7.22154 6.77433 -46.8111 0.420957 0.000575384 0.35866 0.253887 -0.625087 18.7979 -147.466 -15.7184 94.1964 12.0261 -3.56179 73.6707 0.58676 0.000330876 0.0646653 -58.6128 12.4055 97.5007 -2.11336 34.6239 -7.62471 -5.6981 -22.0506 -2.27033 3.61259 -10.4033 13.5045 -30.7347 -6.77831 100.875 3.2704 50.3585 3.07541 4.6214 5.97039 -1.15349 1.94923 -15.299 -3.81734 
-65.9643 93.403 -1.12036 69.4788 12.8663 6.56224 -70.1915 0 88.8779 75.2575 63.6239 -0.609351 3.62587 10.6347 7.90606 -117.312 24.6034 147.855 -140.561 71.4621 177.489 0.765554 -14.7621 -15.2062 -89.7384 24.6726 -73.8862 5.99351 6.68532 -41.8986 0.420957 0.000575384 0.35866 0.305936 -1.43808 17.4771 -149.54 -16.8268 93.4474 13.5421 -3.52213 75.6624 0.58676 0.000330876 0.0646653 -58.288 14.5693 96.4717 -1.20567 31.7611 -9.41269 -5.72899 -20.5577 -2.07211 5.08951 -12.5413 11.7652 -30.5669 -4.17218 105.435 3.91976 52.6454 5.33505 2.6486 4.36311 -0.637256 1.99349 -12.7342 -8.7245 
-64.3453 93.1172 0.668939 66.7739 17.1516 11.1168 -70.1915 0 88.8779 78.582 63.2034 -3.1848 3.4212 9.88675 8.44524 -114.373 21.6881 146.825 -137.36 69.4314 176.656 0.716189 -15.4733 -15.2788 -87.2737 24.2307 -68.2279 4.41687 5.84106 -37.218 0.420957 0.000575384 0.35866 0.313285 -1.37798 18.4444 -147.302 -17.3486 93.5301 14.0668 -1.84953 82.0941 0.58676 0.000330876 0.0646653 -53.0944 18.6929 94.667 -1.5396 34.1722 -9.96015 -3.30313 -18.722 -1.72053 6.04833 -14.1241 12.3408 -31.5279 -0.694091 110.197 3.50977 49.7426 7.0512 0.647696 1.19978 -0.0416532 1.96141 -14.1724 -5.07848 
-63.6747 92.135 2.3291 63.3832 21.2802 16.4551 -70.1915 0 88.8779 86.2954 63.4415 -8.98959 3.16295 9.81092 9.56647 -114.077 19.5542 147.578 -135.622 66.9628 176.472 0.572092 -17.0581 -16.1322 -82.8082 24.2981 -65.1679 2.83554 4.39091 -33.2271 0.420957 0.000575384 0.35866 0.233198 -0.407691 21.0515 -140.592 -18.0545 95.5129 16.3776 0.317504 91.3305 0.58676 0.000330876 0.0646653 -42.4142 22.829 92.9914 -3.55397 44.1133 -8.99586 -3.05339 -17.6818 -1.59605 4.80041 -12.0608 11.4671 -32.7187 1.68203 114.494 3.85239 44.0778 16.9741 -0.171499 -2.77305 0.386965 2.27401 -22.1224 -23.4017 
-63.6486 90.0769 3.94125 60.596 24.5918 20.3823 -70.1915 0 88.8779 97.8848 64.2256 -17.1484 3.24407 11.1445 9.64741 -115.757 19.5331 152.23 -135.253 64.8797 178.054 0.116667 -19.2478 -19.7566 -73.0011 24.7895 -65.181 1.72185 3.11399 -30.1914 0.420957 0.000575384 0.35866 0.102249 0.797839 22.3316 -129.464 -22.307 101.04 20.3792 2.98043 97.619 0.58676 0.000330876 0.0646653 -30.0409 23.8325 91.2275 -4.97243 57.1205 -6.84174 -4.33678 -17.5489 -1.62403 3.98083 -10.2017 8.46976 -32.6351 1.79258 116.845 4.47502 41.391 26.3801 -0.61953 -5.25837 0.585184 -0.073478 -27.8759 -38.6985 
-63.7353 87.4319 5.69879 58.8459 26.3404 21.7432 -70.1915 0 88.8779 112.018 65.0335 -27.907 2.63696 14.0096 8.45965 -117.479 19.7581 158.604 -135.022 62.319 177.707 -0.437332 -21.0413 -23.3415 -61.3152 30.1865 -66.2032 -0.953873 -1.23892 -27.955 0.420957 0.000575384 0.35866 -0.170999 3.01309 23.1134 -113.048 -26.3967 111.625 26.9083 3.44783 96.1906 0.58676 0.000330876 0.0646653 -22.8883 21.8796 87.0223 -5.40142 62.029 1.42016 -2.62524 -16.6227 -1.48791 5.46839 -12.8027 8.41195 -29.5961 1.21721 116.631 4.45111 46.2342 21.404 -4.31054 -12.647 1.20397 1.9488 -25.1473 -19.6454 
-63.4846 85.2031 7.99055 57.2193 26.4789 21.5898 -70.1915 0 88.8779 127.542 65.0387 -42.1621 1.72309 18.1 6.81504 -118.249 18.5693 163.775 -134.692 58.6736 175.478 -0.795951 -21.5736 -26.088 -63.2313 38.0179 -60.7288 -1.16959 -1.58469 -28.3202 0.420957 0.000575384 0.35866 -0.472204 5.54367 23.4352 -94.7191 -28.5864 126.718 32.2651 -0.73166 89.0513 0.58676 0.000330876 0.0646653 -20.4713 18.8547 80.2367 -6.24184 64.5454 1.72884 -6.32097 -19.5707 -1.94977 5.21855 -12.3128 7.33418 -24.8062 2.14437 116.446 5.57839 53.3323 14.1211 -8.07656 -18.82 1.35088 2.42248 -22.5256 -8.27444 
-62.8485 83.9035 10.9793 50.6439 27.7465 24.6385 -70.1915 0 88.8779 143.028 63.4113 -54.9615 0.0141989 22.7341 3.48765 -119.318 18.4377 168.264 -134.897 56.7246 174.85 -1.08205 -21.3164 -29.2204 -70.83 42.7904 -53.418 -0.252238 -0.254884 -30.3177 0.420957 0.000575384 0.35866 -0.868071 7.71766 25.0903 -83.3367 -25.9247 138.753 36.9668 -6.60682 80.9327 0.58676 0.000330876 0.0646653 -14.6413 15.4147 74.1409 -6.89907 63.4442 -3.13774 -6.94335 -17.1741 -1.6634 7.05776 -15.7176 11.7818 -16.4012 3.07917 116.094 7.44645 60.9179 15.5673 -8.67813 -22.2754 1.34562 2.23311 -18.8995 -23.1754 
-60.6817 84.2186 15.3794 38.5054 34.3851 32.8259 -70.1915 0 88.8779 156.344 57.7845 -65.1915 -1.71575 26.608 -1.55022 -121.81 19.6046 171.382 -138.055 57.5459 177.48 -1.22613 -21.027 -31.2788 -73.6059 46.006 -52.1913 -1.30014 -1.79443 -32.7838 0.420957 0.000575384 0.35866 -1.04106 10.0596 23.675 -81.8076 -24.187 144.707 39.5582 -14.3193 73.1804 0.58676 0.000330876 0.0646653 -9.17381 12.2714 72.0609 -4.06572 52.1228 -11.8354 -10.0349 -10.3007 -0.350412 6.52059 -14.2412 4.22428 -9.73459 -0.450147 114.412 8.51272 65.323 8.27042 -7.60136 -25.4971 1.43693 2.55646 -15.1503 -23.5864 
